<?xml version="1.0" encoding="utf-8"?>
<!-- Generator: Adobe Illustrator 24.0.2, SVG Export Plug-In . SVG Version: 6.00 Build 0)  -->
<svg version="1.1" xmlns="http://www.w3.org/2000/svg" xmlns:xlink="http://www.w3.org/1999/xlink" x="0px" y="0px"
	 viewBox="0 0 100 67.5" style="enable-background:new 0 0 100 67.5;" xml:space="preserve">
<style type="text/css">
	.st0{fill:#13D8B2;}
</style>
<g id="Layer_2">
</g>
<g id="Layer_1">
	<g>
		<rect x="-50.6" y="-0.7" class="st0" width="10" height="10"/>
		<rect x="-40.6" y="-10.7" class="st0" width="10" height="10"/>
		<polygon class="st0" points="-30.6,49.3 -20.6,49.3 -20.6,39.3 -20.6,29.3 -20.6,19.3 -30.6,19.3 -30.6,29.3 -40.6,29.3 
			-40.6,19.3 -50.6,19.3 -50.6,9.3 -60.6,9.3 -60.6,-0.7 -70.6,-0.7 -70.6,-10.7 -80.6,-10.7 -80.6,-0.7 -90.6,-0.7 -90.6,9.3 
			-100.6,9.3 -100.6,19.3 -90.6,19.3 -90.6,29.3 -100.6,29.3 -100.6,39.3 -90.6,39.3 -90.6,49.3 -100.6,49.3 -100.6,59.3 
			-100.6,69.3 -90.6,69.3 -90.6,79.3 -80.6,79.3 -70.6,79.3 -60.6,79.3 -50.6,79.3 -40.6,79.3 -40.6,69.3 -30.6,69.3 -20.6,69.3 
			-20.6,59.3 -30.6,59.3 		"/>
		<rect x="-20.6" y="49.3" class="st0" width="10" height="10"/>
		<rect x="-110.6" y="-0.7" class="st0" width="10" height="10"/>
		<rect x="-110.6" y="39.3" class="st0" width="10" height="10"/>
	</g>
	<g>
		<path class="st0" d="M76.1,64H15.4V41.5l9.6-2.5L7.7,36.4l13.2-5.2L2,27.7l16.7-7.2v-17h60.7v19.2l-8.7,3.1l19.1,4.5l-11.5,4.2
			L98,36.7l-21.9,7.1V64z M18.6,60.8h54.3V41.5L83,38.2l-18.6-2.1l14.1-5.2l-19.3-4.5l16.9-6V6.7H21.8v15.9l-8.9,3.9L32.4,30L20,35
			L41,38l-22.4,5.9C18.6,43.9,18.6,60.8,18.6,60.8z"/>
	</g>
</g>
</svg>
